<svg xmlns="http://www.w3.org/2000/svg" xmlns:xlink="http://www.w3.org/1999/xlink" width="40" zoomAndPan="magnify" viewBox="0 0 30 30.000001" height="40" preserveAspectRatio="xMidYMid meet" version="1.2"><defs><clipPath id="f6d554feee"><path d="M 0.484375 0 L 29.515625 0 L 29.515625 29.03125 L 0.484375 29.03125 Z M 0.484375 0 "/></clipPath><clipPath id="bc27723bf2"><path d="M 0.484375 0 L 29.515625 0 L 29.515625 29 L 0.484375 29 Z M 0.484375 0 "/></clipPath><clipPath id="0ed4c1af96"><path d="M 12.582031 0.0546875 L 29.464844 12.101562 L 17.417969 28.980469 L 0.535156 16.933594 Z M 12.582031 0.0546875 "/></clipPath></defs><g id="3aa6b73057"><g clip-rule="nonzero" clip-path="url(#f6d554feee)"><path style=" stroke:none;fill-rule:nonzero;fill:#ffffff;fill-opacity:1;" d="M 0.484375 0 L 29.515625 0 L 29.515625 29.03125 L 0.484375 29.03125 Z M 0.484375 0 "/><path style=" stroke:none;fill-rule:nonzero;fill:#ffffff;fill-opacity:1;" d="M 0.484375 0 L 29.515625 0 L 29.515625 29.03125 L 0.484375 29.03125 Z M 0.484375 0 "/><path style=" stroke:none;fill-rule:nonzero;fill:#3399ff;fill-opacity:1;" d="M 0.484375 0 L 29.515625 0 L 29.515625 29.03125 L 0.484375 29.03125 Z M 0.484375 0 "/></g><g clip-rule="nonzero" clip-path="url(#bc27723bf2)"><g clip-rule="nonzero" clip-path="url(#0ed4c1af96)"><path style=" stroke:none;fill-rule:nonzero;fill:#cd0000;fill-opacity:1;" d="M 12.582031 0.0546875 L 29.464844 12.101562 L 17.417969 28.980469 L 0.535156 16.933594 Z M 12.582031 0.0546875 "/></g></g></g></svg>